<svg width="26.25in" height="34.125in" viewBox="0 0 26.25 34.125" xmlns="http://www.w3.org/2000/svg" version="1.1" preserveAspectRatio="xMidYMid meet"><g id="svgGroup" stroke-linecap="round" fill-rule="evenodd" font-size="9pt" stroke="#000" stroke-width="0.25mm" fill="none" style="stroke:#000;stroke-width:0.25mm;fill:none"><path d="M 0 17.125 L 0 18.35 L 0.118 18.35 L 0.118 19.32 L 0 19.32 L 0 20.29 L 0.118 20.29 L 0.118 21.26 L 0 21.26 L 0 22.23 L 0.118 22.23 L 0.118 23.2 L 0 23.2 L 0 24.17 L 0.118 24.17 L 0.118 25.14 L 0 25.14 L 0 26.11 L 0.118 26.11 L 0.118 27.08 L 0 27.08 L 0 28.05 L 0.118 28.05 L 0.118 29.02 L 0 29.02 L 0 29.99 L 0.118 29.99 L 0.118 30.96 L 0 30.96 L 0 31.93 L 0.118 31.93 L 0.118 32.9 L 0 32.9 L 0 34.125 L 1.635 34.125 L 1.635 34.007 L 2.605 34.007 L 2.605 34.125 L 3.575 34.125 L 3.575 34.007 L 4.545 34.007 L 4.545 34.125 L 5.515 34.125 L 5.515 34.007 L 6.485 34.007 L 6.485 34.125 L 7.455 34.125 L 7.455 34.007 L 8.425 34.007 L 8.425 34.125 L 9.395 34.125 L 9.395 34.007 L 10.365 34.007 L 10.365 34.125 L 11.335 34.125 L 12 34.125 L 12 32.9 L 11.882 32.9 L 11.882 31.93 L 12 31.93 L 12 30.96 L 11.882 30.96 L 11.882 29.99 L 12 29.99 L 12 29.02 L 11.882 29.02 L 11.882 28.05 L 12 28.05 L 12 27.08 L 11.882 27.08 L 11.882 26.11 L 12 26.11 L 12 25.14 L 11.882 25.14 L 11.882 24.17 L 12 24.17 L 12 23.2 L 11.882 23.2 L 11.882 22.23 L 12 22.23 L 12 21.26 L 11.882 21.26 L 11.882 20.29 L 12 20.29 L 12 19.32 L 11.882 19.32 L 11.882 18.35 L 12 18.35 L 12 17.125 L 10.365 17.125 L 10.365 17.243 L 9.395 17.243 L 9.395 17.125 L 8.425 17.125 L 8.425 17.243 L 7.455 17.243 L 7.455 17.125 L 6.485 17.125 L 6.485 17.243 L 5.515 17.243 L 5.515 17.125 L 4.545 17.125 L 4.545 17.243 L 3.575 17.243 L 3.575 17.125 L 2.605 17.125 L 2.605 17.243 L 1.635 17.243 L 1.635 17.125 L 0.665 17.125 L 0 17.125 Z" id="front_outsideCutPath" stroke="#FF0000" stroke-width="0.1" style="stroke:#FF0000;stroke-width:0.1" vector-effect="non-scaling-stroke"/><path d="M 7.749 26.531 L 7.554 26.531 L 7.554 25.701 Q 7.554 25.6 7.525 25.533 A 0.231 0.231 0 0 0 7.483 25.466 A 0.219 0.219 0 0 0 7.393 25.409 Q 7.358 25.396 7.314 25.392 A 0.516 0.516 0 0 0 7.259 25.389 A 0.589 0.589 0 0 0 7.149 25.398 Q 7.03 25.421 6.964 25.498 Q 6.878 25.597 6.871 25.815 A 1.246 1.246 0 0 0 6.87 25.858 L 6.87 26.531 L 6.676 26.531 L 6.676 25.247 L 6.834 25.247 L 6.865 25.423 L 6.875 25.423 A 0.394 0.394 0 0 1 7.029 25.282 A 0.474 0.474 0 0 1 7.042 25.276 A 0.527 0.527 0 0 1 7.23 25.226 A 0.637 0.637 0 0 1 7.283 25.224 A 0.768 0.768 0 0 1 7.413 25.234 Q 7.55 25.258 7.632 25.336 A 0.337 0.337 0 0 1 7.714 25.464 Q 7.734 25.518 7.742 25.583 A 0.849 0.849 0 0 1 7.749 25.694 L 7.749 26.531 Z M 4.012 25.247 L 4.012 25.398 L 3.685 25.398 L 3.685 26.531 L 3.49 26.531 L 3.49 25.398 L 3.261 25.398 L 3.261 25.31 L 3.49 25.24 L 3.49 25.169 Q 3.49 24.695 3.904 24.695 A 0.626 0.626 0 0 1 3.993 24.702 Q 4.062 24.712 4.143 24.736 L 4.093 24.892 A 0.945 0.945 0 0 0 4.019 24.871 Q 3.982 24.863 3.95 24.859 A 0.418 0.418 0 0 0 3.901 24.856 A 0.262 0.262 0 0 0 3.837 24.863 A 0.168 0.168 0 0 0 3.738 24.929 Q 3.69 24.995 3.685 25.135 A 0.919 0.919 0 0 0 3.685 25.164 L 3.685 25.247 L 4.012 25.247 Z M 8.739 26.371 L 8.739 26.52 A 0.191 0.191 0 0 1 8.717 26.529 Q 8.692 26.537 8.658 26.543 A 0.728 0.728 0 0 1 8.646 26.545 A 0.843 0.843 0 0 1 8.591 26.552 Q 8.565 26.555 8.542 26.555 A 0.498 0.498 0 0 1 8.535 26.555 Q 8.238 26.555 8.178 26.305 A 0.611 0.611 0 0 1 8.163 26.162 L 8.163 25.398 L 7.979 25.398 L 7.979 25.304 L 8.163 25.224 L 8.245 24.949 L 8.357 24.949 L 8.357 25.247 L 8.73 25.247 L 8.73 25.398 L 8.357 25.398 L 8.357 26.154 Q 8.357 26.236 8.384 26.29 A 0.189 0.189 0 0 0 8.412 26.332 A 0.181 0.181 0 0 0 8.523 26.391 A 0.26 0.26 0 0 0 8.563 26.394 A 0.639 0.639 0 0 0 8.657 26.388 A 0.592 0.592 0 0 0 8.663 26.387 A 1.053 1.053 0 0 0 8.691 26.382 Q 8.72 26.377 8.739 26.371 Z M 4.986 25.238 L 4.959 25.418 A 0.857 0.857 0 0 0 4.897 25.407 Q 4.854 25.401 4.818 25.401 A 0.337 0.337 0 0 0 4.569 25.508 A 0.461 0.461 0 0 0 4.552 25.527 A 0.444 0.444 0 0 0 4.444 25.777 A 0.59 0.59 0 0 0 4.441 25.842 L 4.441 26.531 L 4.246 26.531 L 4.246 25.247 L 4.407 25.247 L 4.429 25.485 L 4.438 25.485 A 0.657 0.657 0 0 1 4.512 25.38 A 0.502 0.502 0 0 1 4.611 25.292 Q 4.712 25.224 4.832 25.224 A 0.893 0.893 0 0 1 4.912 25.227 A 0.652 0.652 0 0 1 4.986 25.238 Z M 6.335 25.888 Q 6.335 26.202 6.176 26.378 Q 6.018 26.555 5.739 26.555 A 0.625 0.625 0 0 1 5.558 26.529 A 0.542 0.542 0 0 1 5.433 26.474 A 0.527 0.527 0 0 1 5.241 26.27 A 0.639 0.639 0 0 1 5.227 26.242 A 0.72 0.72 0 0 1 5.167 26.046 A 0.973 0.973 0 0 1 5.154 25.888 Q 5.154 25.649 5.246 25.49 A 0.537 0.537 0 0 1 5.312 25.399 A 0.515 0.515 0 0 1 5.612 25.235 A 0.756 0.756 0 0 1 5.747 25.224 Q 6.017 25.224 6.176 25.403 A 0.606 0.606 0 0 1 6.308 25.659 Q 6.335 25.763 6.335 25.888 Z M 5.398 26.158 A 0.408 0.408 0 0 0 5.454 26.263 Q 5.553 26.392 5.744 26.392 A 0.452 0.452 0 0 0 5.863 26.377 A 0.314 0.314 0 0 0 6.034 26.264 Q 6.133 26.135 6.133 25.888 Q 6.133 25.731 6.092 25.622 A 0.401 0.401 0 0 0 6.034 25.516 Q 5.935 25.389 5.742 25.389 A 0.463 0.463 0 0 0 5.626 25.402 A 0.31 0.31 0 0 0 5.453 25.514 Q 5.383 25.604 5.364 25.759 A 1.028 1.028 0 0 0 5.356 25.888 Q 5.356 26.048 5.398 26.158 Z" id="front_labelLayer" stroke="#777777" fill="#777777" style="stroke:#777777;fill:#777777" vector-effect="non-scaling-stroke"/><path d="M 12.243 17.125 L 12.243 18.35 L 12.125 18.35 L 12.125 19.32 L 12.243 19.32 L 12.243 20.29 L 12.125 20.29 L 12.125 21.26 L 12.243 21.26 L 12.243 22.23 L 12.125 22.23 L 12.125 23.2 L 12.243 23.2 L 12.243 24.17 L 12.125 24.17 L 12.125 25.14 L 12.243 25.14 L 12.243 26.11 L 12.125 26.11 L 12.125 27.08 L 12.243 27.08 L 12.243 28.05 L 12.125 28.05 L 12.125 29.02 L 12.243 29.02 L 12.243 29.99 L 12.125 29.99 L 12.125 30.96 L 12.243 30.96 L 12.243 31.93 L 12.125 31.93 L 12.125 32.9 L 12.243 32.9 L 12.243 34.125 L 12.64 34.125 L 12.64 34.007 L 13.61 34.007 L 13.61 34.125 L 14.007 34.125 L 14.007 32.9 L 14.125 32.9 L 14.125 31.93 L 14.007 31.93 L 14.007 30.96 L 14.125 30.96 L 14.125 29.99 L 14.007 29.99 L 14.007 29.02 L 14.125 29.02 L 14.125 28.05 L 14.007 28.05 L 14.007 27.08 L 14.125 27.08 L 14.125 26.11 L 14.007 26.11 L 14.007 25.14 L 14.125 25.14 L 14.125 24.17 L 14.007 24.17 L 14.007 23.2 L 14.125 23.2 L 14.125 22.23 L 14.007 22.23 L 14.007 21.26 L 14.125 21.26 L 14.125 20.29 L 14.007 20.29 L 14.007 19.32 L 14.125 19.32 L 14.125 18.35 L 14.007 18.35 L 14.007 17.125 L 13.61 17.125 L 13.61 17.243 L 12.64 17.243 L 12.64 17.125 L 12.243 17.125 Z" id="left_outsideCutPath" stroke="#FF0000" stroke-width="0.1" style="stroke:#FF0000;stroke-width:0.1" vector-effect="non-scaling-stroke"/><path d="M 13.267 25.562 L 13.267 25.587 L 13.213 25.587 L 13.213 25.776 L 13.18 25.776 L 13.18 25.587 L 13.142 25.587 L 13.142 25.573 L 13.18 25.561 L 13.18 25.549 A 0.131 0.131 0 0 1 13.183 25.519 Q 13.193 25.479 13.232 25.471 A 0.099 0.099 0 0 1 13.249 25.47 Q 13.266 25.47 13.289 25.477 L 13.281 25.503 A 0.158 0.158 0 0 0 13.269 25.499 Q 13.262 25.498 13.257 25.497 A 0.07 0.07 0 0 0 13.249 25.497 A 0.044 0.044 0 0 0 13.238 25.498 A 0.028 0.028 0 0 0 13.222 25.509 A 0.038 0.038 0 0 0 13.217 25.519 Q 13.213 25.53 13.213 25.548 L 13.213 25.562 L 13.267 25.562 Z M 13.116 25.654 L 13.116 25.675 L 12.968 25.675 A 0.13 0.13 0 0 0 12.97 25.697 Q 12.973 25.709 12.977 25.718 A 0.061 0.061 0 0 0 12.987 25.732 A 0.059 0.059 0 0 0 13.018 25.75 A 0.089 0.089 0 0 0 13.038 25.752 A 0.171 0.171 0 0 0 13.102 25.739 A 0.196 0.196 0 0 0 13.106 25.737 L 13.106 25.766 A 0.195 0.195 0 0 1 13.089 25.773 A 0.149 0.149 0 0 1 13.074 25.777 A 0.136 0.136 0 0 1 13.06 25.779 Q 13.054 25.78 13.046 25.78 A 0.264 0.264 0 0 1 13.037 25.78 A 0.126 0.126 0 0 1 13.005 25.776 A 0.089 0.089 0 0 1 12.962 25.751 A 0.095 0.095 0 0 1 12.939 25.709 Q 12.935 25.694 12.935 25.677 A 0.185 0.185 0 0 1 12.934 25.671 A 0.17 0.17 0 0 1 12.938 25.637 Q 12.942 25.617 12.951 25.601 A 0.096 0.096 0 0 1 12.96 25.589 A 0.083 0.083 0 0 1 13.021 25.558 A 0.115 0.115 0 0 1 13.028 25.558 A 0.099 0.099 0 0 1 13.056 25.562 A 0.075 0.075 0 0 1 13.092 25.585 A 0.091 0.091 0 0 1 13.113 25.626 A 0.132 0.132 0 0 1 13.116 25.654 Z M 13.405 25.749 L 13.405 25.774 A 0.032 0.032 0 0 1 13.401 25.776 Q 13.396 25.777 13.389 25.778 Q 13.38 25.78 13.372 25.78 A 0.085 0.085 0 0 1 13.371 25.78 A 0.085 0.085 0 0 1 13.346 25.777 Q 13.309 25.765 13.309 25.715 L 13.309 25.587 L 13.278 25.587 L 13.278 25.572 L 13.309 25.558 L 13.322 25.512 L 13.341 25.512 L 13.341 25.562 L 13.403 25.562 L 13.403 25.587 L 13.341 25.587 L 13.341 25.713 Q 13.341 25.733 13.35 25.743 A 0.03 0.03 0 0 0 13.369 25.753 A 0.043 0.043 0 0 0 13.375 25.753 A 0.106 0.106 0 0 0 13.391 25.752 A 0.094 0.094 0 0 0 13.392 25.752 A 0.176 0.176 0 0 0 13.397 25.751 A 0.113 0.113 0 0 0 13.401 25.75 Z M 12.878 25.472 L 12.878 25.776 L 12.845 25.776 L 12.845 25.472 L 12.878 25.472 Z M 12.969 25.649 L 13.081 25.649 A 0.11 0.11 0 0 0 13.079 25.631 Q 13.078 25.621 13.075 25.614 A 0.05 0.05 0 0 0 13.067 25.602 A 0.044 0.044 0 0 0 13.04 25.586 A 0.067 0.067 0 0 0 13.028 25.585 A 0.064 0.064 0 0 0 13.01 25.588 A 0.049 0.049 0 0 0 12.987 25.602 Q 12.973 25.617 12.969 25.643 A 0.123 0.123 0 0 0 12.969 25.649 Z M 13.401 25.75 Q 13.403 25.75 13.404 25.749" id="left_labelLayer" stroke="#777777" fill="#777777" style="stroke:#777777;fill:#777777" vector-effect="non-scaling-stroke"/><path d="M 14.368 32.243 L 14.368 32.64 L 14.25 32.64 L 14.25 33.61 L 14.368 33.61 L 14.368 34.007 L 15.885 34.007 L 15.885 34.125 L 16.855 34.125 L 16.855 34.007 L 17.825 34.007 L 17.825 34.125 L 18.795 34.125 L 18.795 34.007 L 19.765 34.007 L 19.765 34.125 L 20.735 34.125 L 20.735 34.007 L 21.705 34.007 L 21.705 34.125 L 22.675 34.125 L 22.675 34.007 L 23.645 34.007 L 23.645 34.125 L 24.615 34.125 L 24.615 34.007 L 25.585 34.007 L 26.132 34.007 L 26.132 33.61 L 26.25 33.61 L 26.25 32.64 L 26.132 32.64 L 26.132 32.243 L 24.615 32.243 L 24.615 32.125 L 23.645 32.125 L 23.645 32.243 L 22.675 32.243 L 22.675 32.125 L 21.705 32.125 L 21.705 32.243 L 20.735 32.243 L 20.735 32.125 L 19.765 32.125 L 19.765 32.243 L 18.795 32.243 L 18.795 32.125 L 17.825 32.125 L 17.825 32.243 L 16.855 32.243 L 16.855 32.125 L 15.885 32.125 L 15.885 32.243 L 14.915 32.243 L 14.368 32.243 Z" id="top_outsideCutPath" stroke="#FF0000" stroke-width="0.1" style="stroke:#FF0000;stroke-width:0.1" vector-effect="non-scaling-stroke"/><path d="M 20.394 33.181 L 20.391 33.181 Q 20.394 33.2 20.394 33.217 L 20.394 33.305 L 20.361 33.305 L 20.361 32.995 L 20.388 32.995 L 20.392 33.024 L 20.394 33.024 A 0.087 0.087 0 0 1 20.406 33.01 A 0.067 0.067 0 0 1 20.423 32.999 A 0.081 0.081 0 0 1 20.446 32.992 A 0.105 0.105 0 0 1 20.461 32.991 Q 20.504 32.991 20.527 33.02 A 0.097 0.097 0 0 1 20.543 33.052 Q 20.548 33.066 20.549 33.083 A 0.211 0.211 0 0 1 20.55 33.102 A 0.19 0.19 0 0 1 20.547 33.134 Q 20.542 33.164 20.526 33.183 A 0.077 0.077 0 0 1 20.472 33.212 A 0.11 0.11 0 0 1 20.461 33.213 Q 20.44 33.213 20.423 33.205 A 0.072 0.072 0 0 1 20.394 33.181 Z M 20.077 33.182 L 20.077 33.207 A 0.032 0.032 0 0 1 20.073 33.208 Q 20.068 33.21 20.061 33.211 Q 20.052 33.213 20.044 33.213 A 0.085 0.085 0 0 1 20.043 33.213 A 0.085 0.085 0 0 1 20.018 33.209 Q 19.981 33.198 19.981 33.147 L 19.981 33.02 L 19.95 33.02 L 19.95 33.004 L 19.981 32.991 L 19.995 32.945 L 20.013 32.945 L 20.013 32.995 L 20.075 32.995 L 20.075 33.02 L 20.013 33.02 L 20.013 33.146 Q 20.013 33.165 20.022 33.176 A 0.03 0.03 0 0 0 20.041 33.185 A 0.043 0.043 0 0 0 20.048 33.186 A 0.106 0.106 0 0 0 20.063 33.185 A 0.094 0.094 0 0 0 20.064 33.185 A 0.176 0.176 0 0 0 20.069 33.184 A 0.113 0.113 0 0 0 20.073 33.183 Z M 20.302 33.134 A 0.167 0.167 0 0 0 20.304 33.102 A 0.191 0.191 0 0 0 20.304 33.096 Q 20.303 33.049 20.278 33.021 A 0.085 0.085 0 0 0 20.239 32.995 A 0.109 0.109 0 0 0 20.207 32.991 A 0.126 0.126 0 0 0 20.184 32.993 A 0.086 0.086 0 0 0 20.134 33.02 A 0.09 0.09 0 0 0 20.123 33.035 Q 20.108 33.062 20.108 33.102 A 0.162 0.162 0 0 0 20.11 33.128 A 0.12 0.12 0 0 0 20.12 33.161 A 0.107 0.107 0 0 0 20.122 33.165 A 0.088 0.088 0 0 0 20.154 33.199 Q 20.177 33.213 20.205 33.213 A 0.126 0.126 0 0 0 20.227 33.211 A 0.086 0.086 0 0 0 20.278 33.183 A 0.09 0.09 0 0 0 20.289 33.169 Q 20.298 33.153 20.302 33.134 Z M 20.148 33.147 A 0.068 0.068 0 0 0 20.158 33.164 A 0.053 0.053 0 0 0 20.192 33.184 A 0.081 0.081 0 0 0 20.206 33.186 A 0.075 0.075 0 0 0 20.226 33.183 A 0.052 0.052 0 0 0 20.254 33.164 A 0.07 0.07 0 0 0 20.265 33.143 Q 20.268 33.133 20.27 33.121 A 0.171 0.171 0 0 0 20.271 33.102 A 0.162 0.162 0 0 0 20.269 33.079 Q 20.268 33.067 20.264 33.057 A 0.067 0.067 0 0 0 20.254 33.04 Q 20.238 33.018 20.206 33.018 A 0.077 0.077 0 0 0 20.186 33.021 A 0.052 0.052 0 0 0 20.158 33.039 Q 20.146 33.054 20.143 33.08 A 0.171 0.171 0 0 0 20.141 33.102 Q 20.141 33.128 20.148 33.147 Z M 20.394 33.094 L 20.394 33.102 A 0.214 0.214 0 0 0 20.395 33.124 Q 20.397 33.146 20.405 33.16 A 0.049 0.049 0 0 0 20.409 33.166 A 0.047 0.047 0 0 0 20.433 33.182 Q 20.443 33.186 20.457 33.186 A 0.055 0.055 0 0 0 20.478 33.182 Q 20.491 33.176 20.5 33.163 Q 20.513 33.145 20.516 33.117 A 0.173 0.173 0 0 0 20.516 33.101 Q 20.516 33.061 20.5 33.04 A 0.05 0.05 0 0 0 20.464 33.019 A 0.069 0.069 0 0 0 20.456 33.018 A 0.093 0.093 0 0 0 20.439 33.02 Q 20.429 33.022 20.422 33.026 A 0.043 0.043 0 0 0 20.409 33.037 Q 20.395 33.054 20.394 33.089 A 0.207 0.207 0 0 0 20.394 33.094 Z M 20.073 33.183 Q 20.075 33.183 20.077 33.182" id="top_labelLayer" stroke="#777777" fill="#777777" style="stroke:#777777;fill:#777777" vector-effect="non-scaling-stroke"/><path d="M 0 0 L 0 1.225 L 0.118 1.225 L 0.118 2.195 L 0 2.195 L 0 3.165 L 0.118 3.165 L 0.118 4.135 L 0 4.135 L 0 5.105 L 0.118 5.105 L 0.118 6.075 L 0 6.075 L 0 7.045 L 0.118 7.045 L 0.118 8.015 L 0 8.015 L 0 8.985 L 0.118 8.985 L 0.118 9.955 L 0 9.955 L 0 10.925 L 0.118 10.925 L 0.118 11.895 L 0 11.895 L 0 12.865 L 0.118 12.865 L 0.118 13.835 L 0 13.835 L 0 14.805 L 0.118 14.805 L 0.118 15.775 L 0 15.775 L 0 17 L 1.635 17 L 1.635 16.882 L 2.605 16.882 L 2.605 17 L 3.575 17 L 3.575 16.882 L 4.545 16.882 L 4.545 17 L 5.515 17 L 5.515 16.882 L 6.485 16.882 L 6.485 17 L 7.455 17 L 7.455 16.882 L 8.425 16.882 L 8.425 17 L 9.395 17 L 9.395 16.882 L 10.365 16.882 L 10.365 17 L 11.335 17 L 12 17 L 12 15.775 L 11.882 15.775 L 11.882 14.805 L 12 14.805 L 12 13.835 L 11.882 13.835 L 11.882 12.865 L 12 12.865 L 12 11.895 L 11.882 11.895 L 11.882 10.925 L 12 10.925 L 12 9.955 L 11.882 9.955 L 11.882 8.985 L 12 8.985 L 12 8.015 L 11.882 8.015 L 11.882 7.045 L 12 7.045 L 12 6.075 L 11.882 6.075 L 11.882 5.105 L 12 5.105 L 12 4.135 L 11.882 4.135 L 11.882 3.165 L 12 3.165 L 12 2.195 L 11.882 2.195 L 11.882 1.225 L 12 1.225 L 12 0 L 10.365 0 L 10.365 0.118 L 9.395 0.118 L 9.395 0 L 8.425 0 L 8.425 0.118 L 7.455 0.118 L 7.455 0 L 6.485 0 L 6.485 0.118 L 5.515 0.118 L 5.515 0 L 4.545 0 L 4.545 0.118 L 3.575 0.118 L 3.575 0 L 2.605 0 L 2.605 0.118 L 1.635 0.118 L 1.635 0 L 0.665 0 L 0 0 Z" id="back_outsideCutPath" stroke="#FF0000" stroke-width="0.1" style="stroke:#FF0000;stroke-width:0.1" vector-effect="non-scaling-stroke"/><path d="M 7.643 8.743 L 7.652 8.743 A 1.152 1.152 0 0 1 7.681 8.704 Q 7.714 8.661 7.76 8.607 A 4.179 4.179 0 0 1 7.806 8.555 L 8.221 8.116 L 8.452 8.116 L 7.931 8.663 L 8.488 9.4 L 8.252 9.4 L 7.799 8.793 L 7.652 8.92 L 7.652 9.4 L 7.46 9.4 L 7.46 7.577 L 7.652 7.577 L 7.652 8.543 A 1.296 1.296 0 0 1 7.652 8.58 Q 7.65 8.64 7.643 8.738 A 7.475 7.475 0 0 1 7.643 8.743 Z M 3.707 9.235 L 3.693 9.235 L 3.652 9.4 L 3.512 9.4 L 3.512 7.577 L 3.707 7.577 L 3.707 8.02 A 4.056 4.056 0 0 1 3.704 8.157 Q 3.702 8.221 3.698 8.279 A 2.456 2.456 0 0 1 3.697 8.287 L 3.707 8.287 A 0.442 0.442 0 0 1 4.029 8.099 A 0.664 0.664 0 0 1 4.11 8.095 A 0.595 0.595 0 0 1 4.277 8.117 A 0.445 0.445 0 0 1 4.503 8.267 A 0.573 0.573 0 0 1 4.603 8.461 Q 4.628 8.541 4.637 8.636 A 1.249 1.249 0 0 1 4.643 8.757 A 1.141 1.141 0 0 1 4.628 8.949 Q 4.61 9.051 4.573 9.133 A 0.547 0.547 0 0 1 4.502 9.248 A 0.461 0.461 0 0 1 4.174 9.42 A 0.66 0.66 0 0 1 4.11 9.423 A 0.59 0.59 0 0 1 3.961 9.405 A 0.513 0.513 0 0 1 3.881 9.377 A 0.431 0.431 0 0 1 3.707 9.235 Z M 5.917 9.4 L 5.773 9.4 L 5.734 9.217 L 5.725 9.217 Q 5.657 9.302 5.589 9.349 A 0.358 0.358 0 0 1 5.533 9.381 A 0.449 0.449 0 0 1 5.44 9.41 Q 5.395 9.419 5.343 9.422 A 0.875 0.875 0 0 1 5.295 9.423 Q 5.142 9.423 5.042 9.36 A 0.335 0.335 0 0 1 4.995 9.325 A 0.32 0.32 0 0 1 4.899 9.156 A 0.489 0.489 0 0 1 4.887 9.045 A 0.337 0.337 0 0 1 5.078 8.727 Q 5.221 8.651 5.469 8.639 A 1.901 1.901 0 0 1 5.509 8.637 L 5.727 8.63 L 5.727 8.55 A 0.559 0.559 0 0 0 5.722 8.47 Q 5.715 8.428 5.703 8.395 A 0.217 0.217 0 0 0 5.662 8.327 Q 5.61 8.27 5.509 8.258 A 0.481 0.481 0 0 0 5.454 8.255 Q 5.293 8.255 5.091 8.354 L 5.031 8.205 A 0.897 0.897 0 0 1 5.204 8.134 A 1.021 1.021 0 0 1 5.239 8.124 Q 5.352 8.095 5.466 8.095 A 0.822 0.822 0 0 1 5.591 8.103 Q 5.728 8.125 5.806 8.196 A 0.308 0.308 0 0 1 5.886 8.319 Q 5.917 8.404 5.917 8.523 L 5.917 9.4 Z M 7.174 8.159 L 7.114 8.324 A 0.865 0.865 0 0 0 7.021 8.293 A 1.034 1.034 0 0 0 6.974 8.281 A 0.804 0.804 0 0 0 6.913 8.27 Q 6.873 8.264 6.839 8.264 A 0.431 0.431 0 0 0 6.664 8.297 Q 6.48 8.378 6.453 8.658 A 1.075 1.075 0 0 0 6.448 8.764 A 0.942 0.942 0 0 0 6.457 8.901 Q 6.478 9.04 6.543 9.127 A 0.309 0.309 0 0 0 6.743 9.247 A 0.471 0.471 0 0 0 6.826 9.254 A 0.814 0.814 0 0 0 7.051 9.221 A 1.005 1.005 0 0 0 7.155 9.184 L 7.155 9.357 Q 7.027 9.423 6.831 9.423 A 0.727 0.727 0 0 1 6.654 9.403 A 0.493 0.493 0 0 1 6.399 9.252 A 0.563 0.563 0 0 1 6.282 9.037 Q 6.246 8.918 6.246 8.766 A 1.073 1.073 0 0 1 6.263 8.571 Q 6.297 8.386 6.401 8.268 A 0.504 0.504 0 0 1 6.677 8.109 A 0.764 0.764 0 0 1 6.844 8.092 A 0.878 0.878 0 0 1 7.029 8.112 Q 7.12 8.132 7.173 8.158 A 0.3 0.3 0 0 1 7.174 8.159 Z M 4.082 8.257 Q 3.882 8.257 3.795 8.372 Q 3.707 8.486 3.707 8.757 Q 3.707 8.987 3.772 9.105 A 0.293 0.293 0 0 0 3.797 9.144 A 0.282 0.282 0 0 0 3.94 9.241 Q 3.988 9.256 4.046 9.259 A 0.626 0.626 0 0 0 4.086 9.261 A 0.388 0.388 0 0 0 4.196 9.246 A 0.28 0.28 0 0 0 4.354 9.13 A 0.447 0.447 0 0 0 4.409 9.01 Q 4.426 8.954 4.434 8.885 A 1.115 1.115 0 0 0 4.441 8.754 A 1.149 1.149 0 0 0 4.434 8.623 Q 4.418 8.48 4.362 8.394 A 0.323 0.323 0 0 0 4.354 8.38 A 0.284 0.284 0 0 0 4.173 8.266 A 0.45 0.45 0 0 0 4.082 8.257 Z M 5.722 8.884 L 5.722 8.768 L 5.528 8.777 A 1.428 1.428 0 0 0 5.414 8.785 Q 5.268 8.802 5.193 8.849 A 0.208 0.208 0 0 0 5.094 8.999 A 0.307 0.307 0 0 0 5.091 9.047 A 0.278 0.278 0 0 0 5.098 9.111 Q 5.109 9.16 5.14 9.194 A 0.173 0.173 0 0 0 5.154 9.208 A 0.212 0.212 0 0 0 5.234 9.25 Q 5.278 9.263 5.333 9.263 Q 5.515 9.263 5.619 9.163 Q 5.722 9.064 5.722 8.884 Z" id="back_labelLayer" stroke="#777777" fill="#777777" style="stroke:#777777;fill:#777777" vector-effect="non-scaling-stroke"/><path d="M 12.243 0 L 12.243 1.225 L 12.125 1.225 L 12.125 2.195 L 12.243 2.195 L 12.243 3.165 L 12.125 3.165 L 12.125 4.135 L 12.243 4.135 L 12.243 5.105 L 12.125 5.105 L 12.125 6.075 L 12.243 6.075 L 12.243 7.045 L 12.125 7.045 L 12.125 8.015 L 12.243 8.015 L 12.243 8.985 L 12.125 8.985 L 12.125 9.955 L 12.243 9.955 L 12.243 10.925 L 12.125 10.925 L 12.125 11.895 L 12.243 11.895 L 12.243 12.865 L 12.125 12.865 L 12.125 13.835 L 12.243 13.835 L 12.243 14.805 L 12.125 14.805 L 12.125 15.775 L 12.243 15.775 L 12.243 17 L 12.64 17 L 12.64 16.882 L 13.61 16.882 L 13.61 17 L 14.007 17 L 14.007 15.775 L 14.125 15.775 L 14.125 14.805 L 14.007 14.805 L 14.007 13.835 L 14.125 13.835 L 14.125 12.865 L 14.007 12.865 L 14.007 11.895 L 14.125 11.895 L 14.125 10.925 L 14.007 10.925 L 14.007 9.955 L 14.125 9.955 L 14.125 8.985 L 14.007 8.985 L 14.007 8.015 L 14.125 8.015 L 14.125 7.045 L 14.007 7.045 L 14.007 6.075 L 14.125 6.075 L 14.125 5.105 L 14.007 5.105 L 14.007 4.135 L 14.125 4.135 L 14.125 3.165 L 14.007 3.165 L 14.007 2.195 L 14.125 2.195 L 14.125 1.225 L 14.007 1.225 L 14.007 0 L 13.61 0 L 13.61 0.118 L 12.64 0.118 L 12.64 0 L 12.243 0 Z" id="right_outsideCutPath" stroke="#FF0000" stroke-width="0.1" style="stroke:#FF0000;stroke-width:0.1" vector-effect="non-scaling-stroke"/><path d="M 13.374 8.604 L 13.341 8.604 L 13.341 8.465 A 0.092 0.092 0 0 0 13.34 8.451 Q 13.339 8.443 13.336 8.437 A 0.039 0.039 0 0 0 13.329 8.426 A 0.037 0.037 0 0 0 13.314 8.417 Q 13.309 8.415 13.301 8.414 A 0.086 0.086 0 0 0 13.292 8.413 A 0.098 0.098 0 0 0 13.274 8.415 Q 13.254 8.419 13.243 8.432 A 0.054 0.054 0 0 0 13.234 8.448 Q 13.228 8.463 13.227 8.485 A 0.209 0.209 0 0 0 13.227 8.492 L 13.227 8.604 L 13.195 8.604 L 13.195 8.3 L 13.227 8.3 L 13.227 8.392 Q 13.227 8.404 13.226 8.413 A 0.127 0.127 0 0 1 13.226 8.42 L 13.228 8.42 A 0.065 0.065 0 0 1 13.25 8.398 A 0.079 0.079 0 0 1 13.255 8.395 A 0.083 0.083 0 0 1 13.282 8.387 A 0.105 0.105 0 0 1 13.295 8.386 A 0.132 0.132 0 0 1 13.317 8.388 Q 13.34 8.392 13.354 8.405 A 0.056 0.056 0 0 1 13.368 8.427 Q 13.371 8.436 13.373 8.447 A 0.14 0.14 0 0 1 13.374 8.464 L 13.374 8.604 Z M 13.077 8.39 L 13.151 8.39 L 13.151 8.41 L 13.111 8.415 A 0.053 0.053 0 0 1 13.116 8.422 Q 13.119 8.427 13.121 8.433 A 0.062 0.062 0 0 1 13.125 8.448 A 0.08 0.08 0 0 1 13.125 8.458 A 0.074 0.074 0 0 1 13.122 8.481 A 0.06 0.06 0 0 1 13.104 8.508 A 0.072 0.072 0 0 1 13.076 8.523 Q 13.062 8.527 13.045 8.527 A 0.104 0.104 0 0 1 13.033 8.526 A 0.088 0.088 0 0 1 13.027 8.525 A 0.058 0.058 0 0 0 13.018 8.531 Q 13.013 8.535 13.01 8.54 A 0.024 0.024 0 0 0 13.006 8.553 A 0.017 0.017 0 0 0 13.007 8.558 A 0.014 0.014 0 0 0 13.013 8.565 A 0.023 0.023 0 0 0 13.018 8.568 Q 13.024 8.569 13.032 8.57 A 0.123 0.123 0 0 0 13.038 8.57 L 13.076 8.57 A 0.133 0.133 0 0 1 13.096 8.571 Q 13.107 8.573 13.115 8.576 A 0.059 0.059 0 0 1 13.129 8.585 A 0.047 0.047 0 0 1 13.147 8.615 A 0.071 0.071 0 0 1 13.148 8.627 A 0.07 0.07 0 0 1 13.144 8.651 Q 13.138 8.669 13.121 8.681 A 0.078 0.078 0 0 1 13.12 8.681 Q 13.091 8.7 13.036 8.7 A 0.182 0.182 0 0 1 13.012 8.698 Q 13 8.697 12.99 8.693 A 0.075 0.075 0 0 1 12.972 8.684 A 0.052 0.052 0 0 1 12.955 8.666 Q 12.95 8.656 12.949 8.644 A 0.068 0.068 0 0 1 12.949 8.64 Q 12.949 8.621 12.961 8.606 A 0.057 0.057 0 0 1 12.981 8.592 A 0.08 0.08 0 0 1 12.997 8.587 A 0.034 0.034 0 0 1 12.984 8.577 A 0.04 0.04 0 0 1 12.983 8.576 A 0.03 0.03 0 0 1 12.977 8.559 A 0.037 0.037 0 0 1 12.977 8.557 A 0.037 0.037 0 0 1 12.979 8.545 A 0.033 0.033 0 0 1 12.983 8.537 A 0.046 0.046 0 0 1 12.99 8.53 Q 12.993 8.527 12.997 8.524 A 0.102 0.102 0 0 1 13.003 8.52 A 0.057 0.057 0 0 1 12.979 8.5 A 0.07 0.07 0 0 1 12.976 8.497 A 0.067 0.067 0 0 1 12.966 8.464 A 0.082 0.082 0 0 1 12.966 8.459 A 0.094 0.094 0 0 1 12.968 8.437 A 0.062 0.062 0 0 1 12.987 8.405 A 0.069 0.069 0 0 1 13.013 8.39 Q 13.028 8.386 13.047 8.386 A 0.124 0.124 0 0 1 13.063 8.387 A 0.095 0.095 0 0 1 13.077 8.39 Z M 13.539 8.577 L 13.539 8.602 A 0.032 0.032 0 0 1 13.535 8.603 Q 13.53 8.605 13.523 8.606 Q 13.514 8.608 13.506 8.608 A 0.085 0.085 0 0 1 13.505 8.608 A 0.085 0.085 0 0 1 13.48 8.604 Q 13.443 8.593 13.443 8.542 L 13.443 8.415 L 13.412 8.415 L 13.412 8.399 L 13.443 8.386 L 13.456 8.34 L 13.475 8.34 L 13.475 8.39 L 13.537 8.39 L 13.537 8.415 L 13.475 8.415 L 13.475 8.541 Q 13.475 8.56 13.484 8.571 A 0.03 0.03 0 0 0 13.503 8.581 A 0.043 0.043 0 0 0 13.509 8.581 A 0.106 0.106 0 0 0 13.525 8.58 A 0.094 0.094 0 0 0 13.526 8.58 A 0.176 0.176 0 0 0 13.531 8.579 A 0.113 0.113 0 0 0 13.535 8.578 Z M 12.834 8.388 L 12.83 8.418 A 0.143 0.143 0 0 0 12.82 8.416 Q 12.815 8.416 12.81 8.416 A 0.076 0.076 0 0 0 12.807 8.415 Q 12.781 8.415 12.762 8.437 A 0.074 0.074 0 0 0 12.744 8.478 A 0.098 0.098 0 0 0 12.744 8.489 L 12.744 8.604 L 12.711 8.604 L 12.711 8.39 L 12.738 8.39 L 12.742 8.429 L 12.743 8.429 A 0.109 0.109 0 0 1 12.756 8.412 A 0.084 0.084 0 0 1 12.772 8.397 A 0.065 0.065 0 0 1 12.809 8.386 A 0.149 0.149 0 0 1 12.822 8.387 A 0.109 0.109 0 0 1 12.834 8.388 Z M 12.907 8.39 L 12.907 8.604 L 12.875 8.604 L 12.875 8.39 L 12.907 8.39 Z M 13.066 8.599 L 13.027 8.599 A 0.075 0.075 0 0 0 13.013 8.6 Q 13.001 8.602 12.992 8.61 A 0.034 0.034 0 0 0 12.981 8.629 A 0.052 0.052 0 0 0 12.98 8.64 A 0.033 0.033 0 0 0 12.982 8.652 Q 12.985 8.66 12.993 8.665 A 0.038 0.038 0 0 0 12.995 8.666 Q 13.009 8.675 13.037 8.675 Q 13.073 8.675 13.093 8.665 A 0.054 0.054 0 0 0 13.097 8.663 A 0.047 0.047 0 0 0 13.108 8.654 A 0.035 0.035 0 0 0 13.117 8.63 Q 13.117 8.619 13.113 8.612 A 0.02 0.02 0 0 0 13.106 8.606 Q 13.095 8.599 13.066 8.599 Z M 12.998 8.458 Q 12.998 8.481 13.01 8.492 A 0.042 0.042 0 0 0 13.027 8.502 Q 13.034 8.503 13.041 8.504 A 0.083 0.083 0 0 0 13.046 8.504 A 0.071 0.071 0 0 0 13.064 8.502 Q 13.085 8.496 13.091 8.475 A 0.066 0.066 0 0 0 13.093 8.458 A 0.07 0.07 0 0 0 13.091 8.439 Q 13.083 8.41 13.045 8.41 Q 13.022 8.41 13.01 8.422 A 0.039 0.039 0 0 0 13.001 8.438 Q 12.999 8.444 12.998 8.451 A 0.085 0.085 0 0 0 12.998 8.458 Z M 12.872 8.332 Q 12.872 8.321 12.877 8.316 Q 12.883 8.31 12.891 8.31 Q 12.899 8.31 12.904 8.316 Q 12.909 8.32 12.91 8.328 A 0.037 0.037 0 0 1 12.91 8.332 Q 12.91 8.343 12.904 8.348 Q 12.899 8.354 12.891 8.354 A 0.021 0.021 0 0 1 12.884 8.352 A 0.018 0.018 0 0 1 12.877 8.348 A 0.017 0.017 0 0 1 12.873 8.341 Q 12.872 8.337 12.872 8.332 Z M 13.535 8.578 Q 13.537 8.578 13.538 8.577" id="right_labelLayer" stroke="#777777" fill="#777777" style="stroke:#777777;fill:#777777" vector-effect="non-scaling-stroke"/><path d="M 14.368 30.118 L 14.368 30.515 L 14.25 30.515 L 14.25 31.485 L 14.368 31.485 L 14.368 31.882 L 15.885 31.882 L 15.885 32 L 16.855 32 L 16.855 31.882 L 17.825 31.882 L 17.825 32 L 18.795 32 L 18.795 31.882 L 19.765 31.882 L 19.765 32 L 20.735 32 L 20.735 31.882 L 21.705 31.882 L 21.705 32 L 22.675 32 L 22.675 31.882 L 23.645 31.882 L 23.645 32 L 24.615 32 L 24.615 31.882 L 25.585 31.882 L 26.132 31.882 L 26.132 31.485 L 26.25 31.485 L 26.25 30.515 L 26.132 30.515 L 26.132 30.118 L 24.615 30.118 L 24.615 30 L 23.645 30 L 23.645 30.118 L 22.675 30.118 L 22.675 30 L 21.705 30 L 21.705 30.118 L 20.735 30.118 L 20.735 30 L 19.765 30 L 19.765 30.118 L 18.795 30.118 L 18.795 30 L 17.825 30 L 17.825 30.118 L 16.855 30.118 L 16.855 30 L 15.885 30 L 15.885 30.118 L 14.915 30.118 L 14.368 30.118 Z" id="bottom_outsideCutPath" stroke="#FF0000" stroke-width="0.1" style="stroke:#FF0000;stroke-width:0.1" vector-effect="non-scaling-stroke"/><path d="M 20.908 31.15 L 20.876 31.15 L 20.876 31.011 Q 20.876 30.995 20.871 30.984 A 0.039 0.039 0 0 0 20.865 30.972 A 0.034 0.034 0 0 0 20.849 30.962 Q 20.843 30.96 20.836 30.96 A 0.075 0.075 0 0 0 20.831 30.96 A 0.083 0.083 0 0 0 20.814 30.961 Q 20.796 30.965 20.786 30.977 Q 20.776 30.989 20.773 31.011 A 0.143 0.143 0 0 0 20.771 31.03 L 20.771 31.15 L 20.739 31.15 L 20.739 31.011 Q 20.739 30.995 20.735 30.984 A 0.039 0.039 0 0 0 20.728 30.972 Q 20.719 30.961 20.7 30.96 A 0.076 0.076 0 0 0 20.694 30.96 A 0.081 0.081 0 0 0 20.677 30.961 Q 20.667 30.963 20.659 30.968 A 0.042 0.042 0 0 0 20.649 30.978 A 0.054 0.054 0 0 0 20.641 30.993 Q 20.636 31.008 20.635 31.03 A 0.226 0.226 0 0 0 20.635 31.038 L 20.635 31.15 L 20.603 31.15 L 20.603 30.936 L 20.629 30.936 L 20.634 30.965 L 20.636 30.965 A 0.064 0.064 0 0 1 20.662 30.941 A 0.077 0.077 0 0 1 20.692 30.932 A 0.093 0.093 0 0 1 20.699 30.932 A 0.106 0.106 0 0 1 20.723 30.935 Q 20.738 30.938 20.748 30.946 A 0.055 0.055 0 0 1 20.765 30.968 L 20.766 30.968 A 0.068 0.068 0 0 1 20.792 30.943 A 0.081 0.081 0 0 1 20.794 30.942 A 0.082 0.082 0 0 1 20.824 30.933 A 0.102 0.102 0 0 1 20.836 30.932 A 0.113 0.113 0 0 1 20.856 30.934 Q 20.877 30.938 20.89 30.951 Q 20.903 30.964 20.907 30.99 A 0.149 0.149 0 0 1 20.908 31.01 L 20.908 31.15 Z M 19.624 31.122 L 19.622 31.122 L 19.615 31.15 L 19.592 31.15 L 19.592 30.846 L 19.624 30.846 L 19.624 30.92 Q 19.624 30.944 19.623 30.963 A 0.41 0.41 0 0 1 19.623 30.964 L 19.624 30.964 A 0.074 0.074 0 0 1 19.678 30.933 A 0.111 0.111 0 0 1 19.692 30.932 A 0.099 0.099 0 0 1 19.719 30.936 A 0.074 0.074 0 0 1 19.757 30.961 A 0.096 0.096 0 0 1 19.774 30.993 Q 19.778 31.007 19.78 31.023 A 0.208 0.208 0 0 1 19.78 31.043 A 0.19 0.19 0 0 1 19.778 31.075 Q 19.773 31.105 19.757 31.125 A 0.077 0.077 0 0 1 19.702 31.153 A 0.11 0.11 0 0 1 19.692 31.154 Q 19.671 31.154 19.653 31.146 A 0.072 0.072 0 0 1 19.624 31.122 Z M 20.177 31.123 L 20.177 31.148 A 0.032 0.032 0 0 1 20.173 31.15 Q 20.169 31.151 20.162 31.152 Q 20.152 31.154 20.144 31.154 A 0.085 0.085 0 0 1 20.143 31.154 A 0.085 0.085 0 0 1 20.118 31.151 Q 20.081 31.139 20.081 31.088 L 20.081 30.961 L 20.05 30.961 L 20.05 30.946 L 20.081 30.932 L 20.095 30.886 L 20.113 30.886 L 20.113 30.936 L 20.176 30.936 L 20.176 30.961 L 20.113 30.961 L 20.113 31.087 Q 20.113 31.106 20.123 31.117 A 0.03 0.03 0 0 0 20.141 31.127 A 0.043 0.043 0 0 0 20.148 31.127 A 0.106 0.106 0 0 0 20.163 31.126 A 0.094 0.094 0 0 0 20.164 31.126 A 0.176 0.176 0 0 0 20.169 31.125 A 0.113 0.113 0 0 0 20.173 31.124 Z M 20.318 31.123 L 20.318 31.148 A 0.032 0.032 0 0 1 20.315 31.15 Q 20.31 31.151 20.303 31.152 Q 20.293 31.154 20.285 31.154 A 0.085 0.085 0 0 1 20.284 31.154 A 0.085 0.085 0 0 1 20.259 31.151 Q 20.222 31.139 20.222 31.088 L 20.222 30.961 L 20.192 30.961 L 20.192 30.946 L 20.222 30.932 L 20.236 30.886 L 20.255 30.886 L 20.255 30.936 L 20.317 30.936 L 20.317 30.961 L 20.255 30.961 L 20.255 31.087 Q 20.255 31.106 20.264 31.117 A 0.03 0.03 0 0 0 20.282 31.127 A 0.043 0.043 0 0 0 20.289 31.127 A 0.106 0.106 0 0 0 20.305 31.126 A 0.094 0.094 0 0 0 20.306 31.126 A 0.176 0.176 0 0 0 20.31 31.125 A 0.113 0.113 0 0 0 20.314 31.124 Z M 20.019 31.075 A 0.167 0.167 0 0 0 20.022 31.043 A 0.191 0.191 0 0 0 20.022 31.038 Q 20.021 30.99 19.995 30.962 A 0.085 0.085 0 0 0 19.956 30.936 A 0.109 0.109 0 0 0 19.924 30.932 A 0.126 0.126 0 0 0 19.901 30.934 A 0.086 0.086 0 0 0 19.851 30.961 A 0.09 0.09 0 0 0 19.84 30.976 Q 19.825 31.003 19.825 31.043 A 0.162 0.162 0 0 0 19.827 31.069 A 0.12 0.12 0 0 0 19.837 31.102 A 0.107 0.107 0 0 0 19.84 31.106 A 0.088 0.088 0 0 0 19.872 31.14 Q 19.894 31.154 19.923 31.154 A 0.126 0.126 0 0 0 19.945 31.152 A 0.086 0.086 0 0 0 19.996 31.125 A 0.09 0.09 0 0 0 20.006 31.11 Q 20.015 31.095 20.019 31.075 Z M 20.543 31.075 A 0.167 0.167 0 0 0 20.546 31.043 A 0.191 0.191 0 0 0 20.546 31.038 Q 20.545 30.99 20.519 30.962 A 0.085 0.085 0 0 0 20.48 30.936 A 0.109 0.109 0 0 0 20.448 30.932 A 0.126 0.126 0 0 0 20.425 30.934 A 0.086 0.086 0 0 0 20.375 30.961 A 0.09 0.09 0 0 0 20.364 30.976 Q 20.349 31.003 20.349 31.043 A 0.162 0.162 0 0 0 20.351 31.069 A 0.12 0.12 0 0 0 20.361 31.102 A 0.107 0.107 0 0 0 20.364 31.106 A 0.088 0.088 0 0 0 20.396 31.14 Q 20.418 31.154 20.447 31.154 A 0.126 0.126 0 0 0 20.469 31.152 A 0.086 0.086 0 0 0 20.52 31.125 A 0.09 0.09 0 0 0 20.53 31.11 Q 20.539 31.095 20.543 31.075 Z M 19.866 31.088 A 0.068 0.068 0 0 0 19.875 31.105 A 0.053 0.053 0 0 0 19.91 31.126 A 0.081 0.081 0 0 0 19.923 31.127 A 0.075 0.075 0 0 0 19.943 31.124 A 0.052 0.052 0 0 0 19.972 31.105 A 0.07 0.07 0 0 0 19.983 31.084 Q 19.986 31.075 19.987 31.063 A 0.171 0.171 0 0 0 19.988 31.043 A 0.162 0.162 0 0 0 19.987 31.02 Q 19.985 31.008 19.981 30.998 A 0.067 0.067 0 0 0 19.972 30.981 Q 19.955 30.96 19.923 30.96 A 0.077 0.077 0 0 0 19.904 30.962 A 0.052 0.052 0 0 0 19.875 30.98 Q 19.863 30.996 19.86 31.021 A 0.171 0.171 0 0 0 19.859 31.043 Q 19.859 31.069 19.866 31.088 Z M 20.39 31.088 A 0.068 0.068 0 0 0 20.399 31.105 A 0.053 0.053 0 0 0 20.434 31.126 A 0.081 0.081 0 0 0 20.447 31.127 A 0.075 0.075 0 0 0 20.467 31.124 A 0.052 0.052 0 0 0 20.496 31.105 A 0.07 0.07 0 0 0 20.507 31.084 Q 20.51 31.075 20.511 31.063 A 0.171 0.171 0 0 0 20.512 31.043 A 0.162 0.162 0 0 0 20.511 31.02 Q 20.509 31.008 20.506 30.998 A 0.067 0.067 0 0 0 20.496 30.981 Q 20.479 30.96 20.447 30.96 A 0.077 0.077 0 0 0 20.428 30.962 A 0.052 0.052 0 0 0 20.399 30.98 Q 20.387 30.996 20.384 31.021 A 0.171 0.171 0 0 0 20.383 31.043 Q 20.383 31.069 20.39 31.088 Z M 19.652 30.968 A 0.043 0.043 0 0 0 19.639 30.979 A 0.056 0.056 0 0 0 19.631 30.994 Q 19.624 31.012 19.624 31.043 A 0.214 0.214 0 0 0 19.625 31.065 Q 19.628 31.087 19.635 31.101 A 0.049 0.049 0 0 0 19.639 31.107 A 0.047 0.047 0 0 0 19.663 31.123 Q 19.674 31.127 19.688 31.127 A 0.065 0.065 0 0 0 19.706 31.124 A 0.047 0.047 0 0 0 19.732 31.105 Q 19.747 31.083 19.747 31.042 A 0.192 0.192 0 0 0 19.746 31.021 Q 19.743 30.997 19.734 30.982 A 0.054 0.054 0 0 0 19.732 30.98 A 0.047 0.047 0 0 0 19.702 30.961 A 0.075 0.075 0 0 0 19.687 30.96 Q 19.665 30.96 19.652 30.968 Z M 20.173 31.124 Q 20.175 31.124 20.177 31.123 M 20.314 31.124 Q 20.316 31.124 20.318 31.123" id="bottom_labelLayer" stroke="#777777" fill="#777777" style="stroke:#777777;fill:#777777" vector-effect="non-scaling-stroke"/></g></svg>