<svg width="27.25in" height="4.125in" viewBox="0 0 27.25 4.125" xmlns="http://www.w3.org/2000/svg" version="1.1" preserveAspectRatio="xMidYMid meet"><g id="svgGroup" stroke-linecap="round" fill-rule="evenodd" font-size="9pt" stroke="#000" stroke-width="0.25mm" fill="none" style="stroke:#000;stroke-width:0.25mm;fill:none"><path d="M 0 2.125 L 0 2.405 L 0.118 2.405 L 0.118 2.885 L 0 2.885 L 0 3.365 L 0.118 3.365 L 0.118 3.845 L 0 3.845 L 0 4.125 L 0.96 4.125 L 0.96 4.007 L 1.44 4.007 L 1.44 4.125 L 1.92 4.125 L 1.92 4.007 L 2.4 4.007 L 2.4 4.125 L 2.88 4.125 L 2.88 4.007 L 3.36 4.007 L 3.36 4.125 L 3.84 4.125 L 3.84 4.007 L 4.32 4.007 L 4.32 4.125 L 4.8 4.125 L 4.8 4.007 L 5.28 4.007 L 5.28 4.125 L 5.76 4.125 L 5.76 4.007 L 6.24 4.007 L 6.24 4.125 L 6.72 4.125 L 6.72 4.007 L 7.2 4.007 L 7.2 4.125 L 7.68 4.125 L 7.68 4.007 L 8.16 4.007 L 8.16 4.125 L 8.64 4.125 L 8.64 4.007 L 9.12 4.007 L 9.12 4.125 L 9.6 4.125 L 9.6 4.007 L 10.08 4.007 L 10.08 4.125 L 10.56 4.125 L 10.56 4.007 L 11.04 4.007 L 11.04 4.125 L 11.52 4.125 L 12 4.125 L 12 3.845 L 11.882 3.845 L 11.882 3.365 L 12 3.365 L 12 2.885 L 11.882 2.885 L 11.882 2.405 L 12 2.405 L 12 2.125 L 0 2.125 Z" id="front_outsideCutPath" stroke="#FF0000" stroke-width="0.1" style="stroke:#FF0000;stroke-width:0.1" vector-effect="non-scaling-stroke"/><path d="M 6.292 3.276 L 6.259 3.276 L 6.259 3.138 A 0.092 0.092 0 0 0 6.258 3.123 Q 6.257 3.116 6.254 3.11 A 0.039 0.039 0 0 0 6.247 3.099 A 0.037 0.037 0 0 0 6.232 3.089 Q 6.226 3.087 6.219 3.086 A 0.086 0.086 0 0 0 6.21 3.086 A 0.098 0.098 0 0 0 6.192 3.087 Q 6.181 3.089 6.173 3.094 A 0.046 0.046 0 0 0 6.161 3.104 A 0.053 0.053 0 0 0 6.151 3.12 Q 6.146 3.135 6.145 3.157 A 0.208 0.208 0 0 0 6.145 3.164 L 6.145 3.276 L 6.113 3.276 L 6.113 3.062 L 6.139 3.062 L 6.144 3.091 L 6.146 3.091 A 0.066 0.066 0 0 1 6.172 3.068 A 0.079 0.079 0 0 1 6.174 3.067 Q 6.192 3.058 6.214 3.058 A 0.128 0.128 0 0 1 6.236 3.06 Q 6.258 3.064 6.272 3.077 A 0.056 0.056 0 0 1 6.286 3.098 Q 6.289 3.107 6.29 3.118 A 0.141 0.141 0 0 1 6.292 3.136 L 6.292 3.276 Z M 5.669 3.062 L 5.669 3.087 L 5.614 3.087 L 5.614 3.276 L 5.582 3.276 L 5.582 3.087 L 5.543 3.087 L 5.543 3.073 L 5.582 3.061 L 5.582 3.049 A 0.131 0.131 0 0 1 5.585 3.019 Q 5.594 2.979 5.633 2.971 A 0.099 0.099 0 0 1 5.651 2.97 Q 5.668 2.97 5.691 2.977 L 5.682 3.003 A 0.158 0.158 0 0 0 5.67 2.999 Q 5.664 2.998 5.658 2.997 A 0.07 0.07 0 0 0 5.65 2.997 A 0.044 0.044 0 0 0 5.64 2.998 A 0.028 0.028 0 0 0 5.623 3.009 A 0.038 0.038 0 0 0 5.618 3.019 Q 5.614 3.03 5.614 3.048 L 5.614 3.062 L 5.669 3.062 Z M 6.457 3.249 L 6.457 3.274 A 0.032 0.032 0 0 1 6.453 3.276 Q 6.448 3.277 6.441 3.278 Q 6.431 3.28 6.424 3.28 A 0.085 0.085 0 0 1 6.423 3.28 A 0.085 0.085 0 0 1 6.398 3.277 Q 6.36 3.265 6.36 3.215 L 6.36 3.087 L 6.33 3.087 L 6.33 3.072 L 6.36 3.058 L 6.374 3.012 L 6.393 3.012 L 6.393 3.062 L 6.455 3.062 L 6.455 3.087 L 6.393 3.087 L 6.393 3.213 Q 6.393 3.233 6.402 3.243 A 0.03 0.03 0 0 0 6.421 3.253 A 0.043 0.043 0 0 0 6.427 3.253 A 0.106 0.106 0 0 0 6.443 3.252 A 0.094 0.094 0 0 0 6.444 3.252 A 0.176 0.176 0 0 0 6.449 3.251 A 0.113 0.113 0 0 0 6.453 3.25 Z M 5.831 3.06 L 5.826 3.091 A 0.143 0.143 0 0 0 5.816 3.089 Q 5.811 3.088 5.807 3.088 A 0.076 0.076 0 0 0 5.803 3.088 Q 5.777 3.088 5.759 3.109 A 0.074 0.074 0 0 0 5.741 3.15 A 0.098 0.098 0 0 0 5.74 3.161 L 5.74 3.276 L 5.708 3.276 L 5.708 3.062 L 5.734 3.062 L 5.738 3.102 L 5.74 3.102 A 0.109 0.109 0 0 1 5.752 3.084 A 0.084 0.084 0 0 1 5.768 3.069 A 0.065 0.065 0 0 1 5.805 3.058 A 0.149 0.149 0 0 1 5.819 3.059 A 0.109 0.109 0 0 1 5.831 3.06 Z M 6.053 3.201 A 0.167 0.167 0 0 0 6.056 3.169 A 0.191 0.191 0 0 0 6.056 3.164 Q 6.054 3.116 6.029 3.088 A 0.085 0.085 0 0 0 5.99 3.063 A 0.109 0.109 0 0 0 5.958 3.058 A 0.126 0.126 0 0 0 5.935 3.06 A 0.086 0.086 0 0 0 5.885 3.087 A 0.09 0.09 0 0 0 5.874 3.103 Q 5.859 3.129 5.859 3.169 A 0.162 0.162 0 0 0 5.861 3.195 A 0.12 0.12 0 0 0 5.871 3.228 A 0.107 0.107 0 0 0 5.874 3.232 A 0.088 0.088 0 0 0 5.906 3.266 Q 5.928 3.28 5.957 3.28 A 0.126 0.126 0 0 0 5.979 3.278 A 0.086 0.086 0 0 0 6.029 3.251 A 0.09 0.09 0 0 0 6.04 3.236 Q 6.049 3.221 6.053 3.201 Z M 5.9 3.214 A 0.068 0.068 0 0 0 5.909 3.231 A 0.053 0.053 0 0 0 5.944 3.252 A 0.081 0.081 0 0 0 5.957 3.253 A 0.075 0.075 0 0 0 5.977 3.25 A 0.052 0.052 0 0 0 6.006 3.231 A 0.07 0.07 0 0 0 6.017 3.21 Q 6.02 3.201 6.021 3.189 A 0.171 0.171 0 0 0 6.022 3.169 A 0.162 0.162 0 0 0 6.021 3.146 Q 6.019 3.134 6.015 3.125 A 0.067 0.067 0 0 0 6.006 3.107 Q 5.989 3.086 5.957 3.086 A 0.077 0.077 0 0 0 5.938 3.088 A 0.052 0.052 0 0 0 5.909 3.107 Q 5.897 3.122 5.894 3.147 A 0.171 0.171 0 0 0 5.893 3.169 Q 5.893 3.195 5.9 3.214 Z M 6.453 3.25 Q 6.455 3.25 6.456 3.249" id="front_labelLayer" stroke="#777777" fill="#777777" style="stroke:#777777;fill:#777777" vector-effect="non-scaling-stroke"/><path d="M 12.243 2.125 L 12.243 2.405 L 12.125 2.405 L 12.125 2.885 L 12.243 2.885 L 12.243 3.365 L 12.125 3.365 L 12.125 3.845 L 12.243 3.845 L 12.243 4.125 L 12.425 4.125 L 12.425 4.007 L 12.905 4.007 L 12.905 4.125 L 13.385 4.125 L 13.385 4.007 L 13.865 4.007 L 13.865 4.125 L 14.345 4.125 L 14.345 4.007 L 14.825 4.007 L 14.825 4.125 L 15.007 4.125 L 15.007 3.845 L 15.125 3.845 L 15.125 3.365 L 15.007 3.365 L 15.007 2.885 L 15.125 2.885 L 15.125 2.405 L 15.007 2.405 L 15.007 2.125 L 12.243 2.125 Z" id="left_outsideCutPath" stroke="#FF0000" stroke-width="0.1" style="stroke:#FF0000;stroke-width:0.1" vector-effect="non-scaling-stroke"/><path d="M 13.767 3.062 L 13.767 3.087 L 13.713 3.087 L 13.713 3.276 L 13.68 3.276 L 13.68 3.087 L 13.642 3.087 L 13.642 3.073 L 13.68 3.061 L 13.68 3.049 A 0.131 0.131 0 0 1 13.683 3.019 Q 13.693 2.979 13.732 2.971 A 0.099 0.099 0 0 1 13.749 2.97 Q 13.766 2.97 13.789 2.977 L 13.781 3.003 A 0.158 0.158 0 0 0 13.769 2.999 Q 13.762 2.998 13.757 2.997 A 0.07 0.07 0 0 0 13.749 2.997 A 0.044 0.044 0 0 0 13.738 2.998 A 0.028 0.028 0 0 0 13.722 3.009 A 0.038 0.038 0 0 0 13.717 3.019 Q 13.713 3.03 13.713 3.048 L 13.713 3.062 L 13.767 3.062 Z M 13.616 3.154 L 13.616 3.175 L 13.468 3.175 A 0.13 0.13 0 0 0 13.47 3.197 Q 13.473 3.209 13.477 3.218 A 0.061 0.061 0 0 0 13.487 3.232 A 0.059 0.059 0 0 0 13.518 3.25 A 0.089 0.089 0 0 0 13.538 3.252 A 0.171 0.171 0 0 0 13.602 3.239 A 0.196 0.196 0 0 0 13.606 3.237 L 13.606 3.266 A 0.195 0.195 0 0 1 13.589 3.273 A 0.149 0.149 0 0 1 13.574 3.277 A 0.136 0.136 0 0 1 13.56 3.279 Q 13.554 3.28 13.546 3.28 A 0.264 0.264 0 0 1 13.537 3.28 A 0.126 0.126 0 0 1 13.505 3.276 A 0.089 0.089 0 0 1 13.462 3.251 A 0.095 0.095 0 0 1 13.439 3.209 Q 13.435 3.194 13.435 3.177 A 0.185 0.185 0 0 1 13.434 3.171 A 0.17 0.17 0 0 1 13.438 3.137 Q 13.442 3.117 13.451 3.101 A 0.096 0.096 0 0 1 13.46 3.089 A 0.083 0.083 0 0 1 13.521 3.058 A 0.115 0.115 0 0 1 13.528 3.058 A 0.099 0.099 0 0 1 13.556 3.062 A 0.075 0.075 0 0 1 13.592 3.085 A 0.091 0.091 0 0 1 13.613 3.126 A 0.132 0.132 0 0 1 13.616 3.154 Z M 13.905 3.249 L 13.905 3.274 A 0.032 0.032 0 0 1 13.901 3.276 Q 13.896 3.277 13.889 3.278 Q 13.88 3.28 13.872 3.28 A 0.085 0.085 0 0 1 13.871 3.28 A 0.085 0.085 0 0 1 13.846 3.277 Q 13.809 3.265 13.809 3.215 L 13.809 3.087 L 13.778 3.087 L 13.778 3.072 L 13.809 3.058 L 13.822 3.012 L 13.841 3.012 L 13.841 3.062 L 13.903 3.062 L 13.903 3.087 L 13.841 3.087 L 13.841 3.213 Q 13.841 3.233 13.85 3.243 A 0.03 0.03 0 0 0 13.869 3.253 A 0.043 0.043 0 0 0 13.875 3.253 A 0.106 0.106 0 0 0 13.891 3.252 A 0.094 0.094 0 0 0 13.892 3.252 A 0.176 0.176 0 0 0 13.897 3.251 A 0.113 0.113 0 0 0 13.901 3.25 Z M 13.378 2.972 L 13.378 3.276 L 13.345 3.276 L 13.345 2.972 L 13.378 2.972 Z M 13.469 3.149 L 13.581 3.149 A 0.11 0.11 0 0 0 13.579 3.131 Q 13.578 3.121 13.575 3.114 A 0.05 0.05 0 0 0 13.567 3.102 A 0.044 0.044 0 0 0 13.54 3.086 A 0.067 0.067 0 0 0 13.528 3.085 A 0.064 0.064 0 0 0 13.51 3.088 A 0.049 0.049 0 0 0 13.487 3.102 Q 13.473 3.117 13.469 3.143 A 0.123 0.123 0 0 0 13.469 3.149 Z M 13.901 3.25 Q 13.903 3.25 13.904 3.249" id="left_labelLayer" stroke="#777777" fill="#777777" style="stroke:#777777;fill:#777777" vector-effect="non-scaling-stroke"/><path d="M 0 0 L 0 0.28 L 0.118 0.28 L 0.118 0.76 L 0 0.76 L 0 1.24 L 0.118 1.24 L 0.118 1.72 L 0 1.72 L 0 2 L 0.96 2 L 0.96 1.882 L 1.44 1.882 L 1.44 2 L 1.92 2 L 1.92 1.882 L 2.4 1.882 L 2.4 2 L 2.88 2 L 2.88 1.882 L 3.36 1.882 L 3.36 2 L 3.84 2 L 3.84 1.882 L 4.32 1.882 L 4.32 2 L 4.8 2 L 4.8 1.882 L 5.28 1.882 L 5.28 2 L 5.76 2 L 5.76 1.882 L 6.24 1.882 L 6.24 2 L 6.72 2 L 6.72 1.882 L 7.2 1.882 L 7.2 2 L 7.68 2 L 7.68 1.882 L 8.16 1.882 L 8.16 2 L 8.64 2 L 8.64 1.882 L 9.12 1.882 L 9.12 2 L 9.6 2 L 9.6 1.882 L 10.08 1.882 L 10.08 2 L 10.56 2 L 10.56 1.882 L 11.04 1.882 L 11.04 2 L 11.52 2 L 12 2 L 12 1.72 L 11.882 1.72 L 11.882 1.24 L 12 1.24 L 12 0.76 L 11.882 0.76 L 11.882 0.28 L 12 0.28 L 12 0 L 0 0 Z" id="back_outsideCutPath" stroke="#FF0000" stroke-width="0.1" style="stroke:#FF0000;stroke-width:0.1" vector-effect="non-scaling-stroke"/><path d="M 6.274 1.04 L 6.275 1.04 A 0.192 0.192 0 0 1 6.28 1.034 Q 6.288 1.024 6.301 1.009 L 6.37 0.936 L 6.409 0.936 L 6.322 1.027 L 6.415 1.15 L 6.375 1.15 L 6.3 1.049 L 6.275 1.07 L 6.275 1.15 L 6.243 1.15 L 6.243 0.846 L 6.275 0.846 L 6.275 1.007 A 0.216 0.216 0 0 1 6.275 1.013 Q 6.275 1.023 6.274 1.04 Z M 5.618 1.122 L 5.615 1.122 L 5.609 1.15 L 5.585 1.15 L 5.585 0.846 L 5.618 0.846 L 5.618 0.92 Q 5.618 0.944 5.616 0.963 A 0.41 0.41 0 0 1 5.616 0.964 L 5.618 0.964 A 0.074 0.074 0 0 1 5.672 0.933 A 0.111 0.111 0 0 1 5.685 0.932 A 0.099 0.099 0 0 1 5.713 0.936 A 0.074 0.074 0 0 1 5.75 0.961 A 0.096 0.096 0 0 1 5.767 0.993 Q 5.771 1.007 5.773 1.023 A 0.208 0.208 0 0 1 5.774 1.043 A 0.19 0.19 0 0 1 5.771 1.075 Q 5.766 1.105 5.75 1.125 A 0.077 0.077 0 0 1 5.696 1.153 A 0.11 0.11 0 0 1 5.685 1.154 Q 5.664 1.154 5.647 1.146 A 0.072 0.072 0 0 1 5.618 1.122 Z M 5.986 1.15 L 5.962 1.15 L 5.956 1.12 L 5.954 1.12 A 0.134 0.134 0 0 1 5.943 1.132 Q 5.937 1.137 5.932 1.141 A 0.06 0.06 0 0 1 5.922 1.147 A 0.075 0.075 0 0 1 5.907 1.152 Q 5.896 1.154 5.882 1.154 A 0.099 0.099 0 0 1 5.862 1.152 Q 5.85 1.149 5.84 1.143 A 0.056 0.056 0 0 1 5.833 1.137 A 0.053 0.053 0 0 1 5.816 1.109 A 0.082 0.082 0 0 1 5.814 1.091 A 0.056 0.056 0 0 1 5.846 1.038 Q 5.872 1.024 5.918 1.023 L 5.954 1.022 L 5.954 1.008 A 0.093 0.093 0 0 0 5.954 0.995 Q 5.953 0.988 5.95 0.983 A 0.036 0.036 0 0 0 5.944 0.971 Q 5.933 0.959 5.909 0.959 A 0.106 0.106 0 0 0 5.885 0.962 Q 5.868 0.966 5.848 0.976 L 5.838 0.951 A 0.149 0.149 0 0 1 5.867 0.939 A 0.171 0.171 0 0 1 5.873 0.937 A 0.15 0.15 0 0 1 5.911 0.932 A 0.137 0.137 0 0 1 5.932 0.934 Q 5.955 0.937 5.968 0.949 A 0.051 0.051 0 0 1 5.981 0.97 Q 5.984 0.978 5.985 0.989 A 0.128 0.128 0 0 1 5.986 1.004 L 5.986 1.15 Z M 6.196 0.943 L 6.186 0.971 A 0.144 0.144 0 0 0 6.17 0.965 A 0.172 0.172 0 0 0 6.162 0.964 A 0.134 0.134 0 0 0 6.152 0.962 Q 6.147 0.961 6.143 0.961 A 0.072 0.072 0 0 0 6.14 0.961 A 0.072 0.072 0 0 0 6.111 0.966 Q 6.08 0.98 6.075 1.026 A 0.179 0.179 0 0 0 6.075 1.044 A 0.157 0.157 0 0 0 6.076 1.067 Q 6.078 1.078 6.081 1.088 A 0.067 0.067 0 0 0 6.091 1.104 A 0.051 0.051 0 0 0 6.124 1.124 A 0.078 0.078 0 0 0 6.138 1.126 A 0.136 0.136 0 0 0 6.175 1.12 A 0.168 0.168 0 0 0 6.193 1.114 L 6.193 1.143 A 0.092 0.092 0 0 1 6.17 1.151 Q 6.16 1.153 6.147 1.154 A 0.178 0.178 0 0 1 6.138 1.154 A 0.121 0.121 0 0 1 6.109 1.151 A 0.082 0.082 0 0 1 6.067 1.125 Q 6.044 1.101 6.041 1.058 A 0.196 0.196 0 0 1 6.041 1.044 A 0.179 0.179 0 0 1 6.044 1.012 Q 6.047 0.994 6.055 0.979 A 0.089 0.089 0 0 1 6.067 0.961 Q 6.093 0.932 6.141 0.932 A 0.146 0.146 0 0 1 6.171 0.935 Q 6.181 0.937 6.189 0.94 A 0.064 0.064 0 0 1 6.196 0.943 Z M 5.645 0.968 A 0.043 0.043 0 0 0 5.632 0.979 A 0.056 0.056 0 0 0 5.624 0.994 Q 5.618 1.012 5.618 1.043 A 0.214 0.214 0 0 0 5.619 1.065 Q 5.621 1.087 5.629 1.101 A 0.049 0.049 0 0 0 5.633 1.107 A 0.047 0.047 0 0 0 5.657 1.123 Q 5.667 1.127 5.681 1.127 A 0.065 0.065 0 0 0 5.699 1.124 A 0.047 0.047 0 0 0 5.726 1.105 Q 5.74 1.083 5.74 1.042 A 0.192 0.192 0 0 0 5.739 1.021 Q 5.736 0.997 5.727 0.982 A 0.054 0.054 0 0 0 5.726 0.98 A 0.047 0.047 0 0 0 5.695 0.961 A 0.075 0.075 0 0 0 5.68 0.96 Q 5.659 0.96 5.645 0.968 Z M 5.954 1.064 L 5.954 1.045 L 5.921 1.046 A 0.238 0.238 0 0 0 5.902 1.047 Q 5.884 1.05 5.872 1.055 A 0.05 0.05 0 0 0 5.866 1.058 Q 5.848 1.069 5.848 1.091 A 0.046 0.046 0 0 0 5.85 1.102 Q 5.852 1.11 5.857 1.116 A 0.029 0.029 0 0 0 5.859 1.118 A 0.035 0.035 0 0 0 5.872 1.125 Q 5.878 1.127 5.884 1.127 A 0.073 0.073 0 0 0 5.889 1.127 A 0.089 0.089 0 0 0 5.908 1.125 Q 5.922 1.122 5.931 1.115 A 0.054 0.054 0 0 0 5.936 1.111 A 0.054 0.054 0 0 0 5.952 1.083 A 0.082 0.082 0 0 0 5.954 1.064 Z" id="back_labelLayer" stroke="#777777" fill="#777777" style="stroke:#777777;fill:#777777" vector-effect="non-scaling-stroke"/><path d="M 12.243 0 L 12.243 0.28 L 12.125 0.28 L 12.125 0.76 L 12.243 0.76 L 12.243 1.24 L 12.125 1.24 L 12.125 1.72 L 12.243 1.72 L 12.243 2 L 12.425 2 L 12.425 1.882 L 12.905 1.882 L 12.905 2 L 13.385 2 L 13.385 1.882 L 13.865 1.882 L 13.865 2 L 14.345 2 L 14.345 1.882 L 14.825 1.882 L 14.825 2 L 15.007 2 L 15.007 1.72 L 15.125 1.72 L 15.125 1.24 L 15.007 1.24 L 15.007 0.76 L 15.125 0.76 L 15.125 0.28 L 15.007 0.28 L 15.007 0 L 12.243 0 Z" id="right_outsideCutPath" stroke="#FF0000" stroke-width="0.1" style="stroke:#FF0000;stroke-width:0.1" vector-effect="non-scaling-stroke"/><path d="M 13.874 1.104 L 13.841 1.104 L 13.841 0.965 A 0.092 0.092 0 0 0 13.84 0.951 Q 13.839 0.943 13.836 0.937 A 0.039 0.039 0 0 0 13.829 0.926 A 0.037 0.037 0 0 0 13.814 0.917 Q 13.809 0.915 13.801 0.914 A 0.086 0.086 0 0 0 13.792 0.913 A 0.098 0.098 0 0 0 13.774 0.915 Q 13.754 0.919 13.743 0.932 A 0.054 0.054 0 0 0 13.734 0.948 Q 13.728 0.963 13.727 0.985 A 0.209 0.209 0 0 0 13.727 0.992 L 13.727 1.104 L 13.695 1.104 L 13.695 0.8 L 13.727 0.8 L 13.727 0.892 Q 13.727 0.904 13.726 0.913 A 0.127 0.127 0 0 1 13.726 0.92 L 13.728 0.92 A 0.065 0.065 0 0 1 13.75 0.898 A 0.079 0.079 0 0 1 13.755 0.895 A 0.083 0.083 0 0 1 13.782 0.887 A 0.105 0.105 0 0 1 13.795 0.886 A 0.132 0.132 0 0 1 13.817 0.888 Q 13.84 0.892 13.854 0.905 A 0.056 0.056 0 0 1 13.868 0.927 Q 13.871 0.936 13.873 0.947 A 0.14 0.14 0 0 1 13.874 0.964 L 13.874 1.104 Z M 13.577 0.89 L 13.651 0.89 L 13.651 0.91 L 13.611 0.915 A 0.053 0.053 0 0 1 13.616 0.922 Q 13.619 0.927 13.621 0.933 A 0.062 0.062 0 0 1 13.625 0.948 A 0.08 0.08 0 0 1 13.625 0.958 A 0.074 0.074 0 0 1 13.622 0.981 A 0.06 0.06 0 0 1 13.604 1.008 A 0.072 0.072 0 0 1 13.576 1.023 Q 13.562 1.027 13.545 1.027 A 0.104 0.104 0 0 1 13.533 1.026 A 0.088 0.088 0 0 1 13.527 1.025 A 0.058 0.058 0 0 0 13.518 1.031 Q 13.513 1.035 13.51 1.04 A 0.024 0.024 0 0 0 13.506 1.053 A 0.017 0.017 0 0 0 13.507 1.058 A 0.014 0.014 0 0 0 13.513 1.065 A 0.023 0.023 0 0 0 13.518 1.068 Q 13.524 1.069 13.532 1.07 A 0.123 0.123 0 0 0 13.538 1.07 L 13.576 1.07 A 0.133 0.133 0 0 1 13.596 1.071 Q 13.607 1.073 13.615 1.076 A 0.059 0.059 0 0 1 13.629 1.085 A 0.047 0.047 0 0 1 13.647 1.115 A 0.071 0.071 0 0 1 13.648 1.127 A 0.07 0.07 0 0 1 13.644 1.151 Q 13.638 1.169 13.621 1.181 A 0.078 0.078 0 0 1 13.62 1.181 Q 13.591 1.2 13.536 1.2 A 0.182 0.182 0 0 1 13.512 1.198 Q 13.5 1.197 13.49 1.193 A 0.075 0.075 0 0 1 13.472 1.184 A 0.052 0.052 0 0 1 13.455 1.166 Q 13.45 1.156 13.449 1.144 A 0.068 0.068 0 0 1 13.449 1.14 Q 13.449 1.121 13.461 1.106 A 0.057 0.057 0 0 1 13.481 1.092 A 0.08 0.08 0 0 1 13.497 1.087 A 0.034 0.034 0 0 1 13.484 1.077 A 0.04 0.04 0 0 1 13.483 1.076 A 0.03 0.03 0 0 1 13.477 1.059 A 0.037 0.037 0 0 1 13.477 1.057 A 0.037 0.037 0 0 1 13.479 1.045 A 0.033 0.033 0 0 1 13.483 1.037 A 0.046 0.046 0 0 1 13.49 1.03 Q 13.493 1.027 13.497 1.024 A 0.102 0.102 0 0 1 13.503 1.02 A 0.057 0.057 0 0 1 13.479 1 A 0.07 0.07 0 0 1 13.476 0.997 A 0.067 0.067 0 0 1 13.466 0.964 A 0.082 0.082 0 0 1 13.466 0.959 A 0.094 0.094 0 0 1 13.468 0.937 A 0.062 0.062 0 0 1 13.487 0.905 A 0.069 0.069 0 0 1 13.513 0.89 Q 13.528 0.886 13.547 0.886 A 0.124 0.124 0 0 1 13.563 0.887 A 0.095 0.095 0 0 1 13.577 0.89 Z M 14.039 1.077 L 14.039 1.102 A 0.032 0.032 0 0 1 14.035 1.103 Q 14.03 1.105 14.023 1.106 Q 14.014 1.108 14.006 1.108 A 0.085 0.085 0 0 1 14.005 1.108 A 0.085 0.085 0 0 1 13.98 1.104 Q 13.943 1.093 13.943 1.042 L 13.943 0.915 L 13.912 0.915 L 13.912 0.899 L 13.943 0.886 L 13.956 0.84 L 13.975 0.84 L 13.975 0.89 L 14.037 0.89 L 14.037 0.915 L 13.975 0.915 L 13.975 1.041 Q 13.975 1.06 13.984 1.071 A 0.03 0.03 0 0 0 14.003 1.081 A 0.043 0.043 0 0 0 14.009 1.081 A 0.106 0.106 0 0 0 14.025 1.08 A 0.094 0.094 0 0 0 14.026 1.08 A 0.176 0.176 0 0 0 14.031 1.079 A 0.113 0.113 0 0 0 14.035 1.078 Z M 13.334 0.888 L 13.33 0.918 A 0.143 0.143 0 0 0 13.32 0.916 Q 13.315 0.916 13.31 0.916 A 0.076 0.076 0 0 0 13.307 0.915 Q 13.281 0.915 13.262 0.937 A 0.074 0.074 0 0 0 13.244 0.978 A 0.098 0.098 0 0 0 13.244 0.989 L 13.244 1.104 L 13.211 1.104 L 13.211 0.89 L 13.238 0.89 L 13.242 0.929 L 13.243 0.929 A 0.109 0.109 0 0 1 13.256 0.912 A 0.084 0.084 0 0 1 13.272 0.897 A 0.065 0.065 0 0 1 13.309 0.886 A 0.149 0.149 0 0 1 13.322 0.887 A 0.109 0.109 0 0 1 13.334 0.888 Z M 13.407 0.89 L 13.407 1.104 L 13.375 1.104 L 13.375 0.89 L 13.407 0.89 Z M 13.566 1.099 L 13.527 1.099 A 0.075 0.075 0 0 0 13.513 1.1 Q 13.501 1.102 13.492 1.11 A 0.034 0.034 0 0 0 13.481 1.129 A 0.052 0.052 0 0 0 13.48 1.14 A 0.033 0.033 0 0 0 13.482 1.152 Q 13.485 1.16 13.493 1.165 A 0.038 0.038 0 0 0 13.495 1.166 Q 13.509 1.175 13.537 1.175 Q 13.573 1.175 13.593 1.165 A 0.054 0.054 0 0 0 13.597 1.163 A 0.047 0.047 0 0 0 13.608 1.154 A 0.035 0.035 0 0 0 13.617 1.13 Q 13.617 1.119 13.613 1.112 A 0.02 0.02 0 0 0 13.606 1.106 Q 13.595 1.099 13.566 1.099 Z M 13.498 0.958 Q 13.498 0.981 13.51 0.992 A 0.042 0.042 0 0 0 13.527 1.002 Q 13.534 1.003 13.541 1.004 A 0.083 0.083 0 0 0 13.546 1.004 A 0.071 0.071 0 0 0 13.564 1.002 Q 13.585 0.996 13.591 0.975 A 0.066 0.066 0 0 0 13.593 0.958 A 0.07 0.07 0 0 0 13.591 0.939 Q 13.583 0.91 13.545 0.91 Q 13.522 0.91 13.51 0.922 A 0.039 0.039 0 0 0 13.501 0.938 Q 13.499 0.944 13.498 0.951 A 0.085 0.085 0 0 0 13.498 0.958 Z M 13.372 0.832 Q 13.372 0.821 13.377 0.816 Q 13.383 0.81 13.391 0.81 Q 13.399 0.81 13.404 0.816 Q 13.409 0.82 13.41 0.828 A 0.037 0.037 0 0 1 13.41 0.832 Q 13.41 0.843 13.404 0.848 Q 13.399 0.854 13.391 0.854 A 0.021 0.021 0 0 1 13.384 0.852 A 0.018 0.018 0 0 1 13.377 0.848 A 0.017 0.017 0 0 1 13.373 0.841 Q 13.372 0.837 13.372 0.832 Z M 14.035 1.078 Q 14.037 1.078 14.038 1.077" id="right_labelLayer" stroke="#777777" fill="#777777" style="stroke:#777777;fill:#777777" vector-effect="non-scaling-stroke"/><path d="M 15.368 1.243 L 15.368 1.425 L 15.25 1.425 L 15.25 1.905 L 15.368 1.905 L 15.368 2.385 L 15.25 2.385 L 15.25 2.865 L 15.368 2.865 L 15.368 3.345 L 15.25 3.345 L 15.25 3.825 L 15.368 3.825 L 15.368 4.007 L 16.21 4.007 L 16.21 4.125 L 16.69 4.125 L 16.69 4.007 L 17.17 4.007 L 17.17 4.125 L 17.65 4.125 L 17.65 4.007 L 18.13 4.007 L 18.13 4.125 L 18.61 4.125 L 18.61 4.007 L 19.09 4.007 L 19.09 4.125 L 19.57 4.125 L 19.57 4.007 L 20.05 4.007 L 20.05 4.125 L 20.53 4.125 L 20.53 4.007 L 21.01 4.007 L 21.01 4.125 L 21.49 4.125 L 21.49 4.007 L 21.97 4.007 L 21.97 4.125 L 22.45 4.125 L 22.45 4.007 L 22.93 4.007 L 22.93 4.125 L 23.41 4.125 L 23.41 4.007 L 23.89 4.007 L 23.89 4.125 L 24.37 4.125 L 24.37 4.007 L 24.85 4.007 L 24.85 4.125 L 25.33 4.125 L 25.33 4.007 L 25.81 4.007 L 25.81 4.125 L 26.29 4.125 L 26.29 4.007 L 26.77 4.007 L 27.132 4.007 L 27.132 3.825 L 27.25 3.825 L 27.25 3.345 L 27.132 3.345 L 27.132 2.865 L 27.25 2.865 L 27.25 2.385 L 27.132 2.385 L 27.132 1.905 L 27.25 1.905 L 27.25 1.425 L 27.132 1.425 L 27.132 1.243 L 26.29 1.243 L 26.29 1.125 L 25.81 1.125 L 25.81 1.243 L 25.33 1.243 L 25.33 1.125 L 24.85 1.125 L 24.85 1.243 L 24.37 1.243 L 24.37 1.125 L 23.89 1.125 L 23.89 1.243 L 23.41 1.243 L 23.41 1.125 L 22.93 1.125 L 22.93 1.243 L 22.45 1.243 L 22.45 1.125 L 21.97 1.125 L 21.97 1.243 L 21.49 1.243 L 21.49 1.125 L 21.01 1.125 L 21.01 1.243 L 20.53 1.243 L 20.53 1.125 L 20.05 1.125 L 20.05 1.243 L 19.57 1.243 L 19.57 1.125 L 19.09 1.125 L 19.09 1.243 L 18.61 1.243 L 18.61 1.125 L 18.13 1.125 L 18.13 1.243 L 17.65 1.243 L 17.65 1.125 L 17.17 1.125 L 17.17 1.243 L 16.69 1.243 L 16.69 1.125 L 16.21 1.125 L 16.21 1.243 L 15.73 1.243 L 15.368 1.243 Z" id="bottom_outsideCutPath" stroke="#FF0000" stroke-width="0.1" style="stroke:#FF0000;stroke-width:0.1" vector-effect="non-scaling-stroke"/><path d="M 22.237 2.85 L 22.188 2.85 L 22.188 2.641 A 0.143 0.143 0 0 0 22.187 2.62 Q 22.185 2.609 22.182 2.601 A 0.059 0.059 0 0 0 22.172 2.584 Q 22.156 2.564 22.121 2.564 A 0.125 0.125 0 0 0 22.096 2.567 Q 22.08 2.57 22.069 2.577 A 0.064 0.064 0 0 0 22.054 2.59 Q 22.039 2.609 22.034 2.641 A 0.214 0.214 0 0 0 22.032 2.67 L 22.032 2.85 L 21.984 2.85 L 21.984 2.641 A 0.143 0.143 0 0 0 21.982 2.62 Q 21.981 2.609 21.977 2.601 A 0.059 0.059 0 0 0 21.967 2.584 A 0.051 0.051 0 0 0 21.944 2.568 Q 21.935 2.566 21.925 2.565 A 0.114 0.114 0 0 0 21.916 2.564 Q 21.884 2.564 21.864 2.578 A 0.064 0.064 0 0 0 21.849 2.592 Q 21.828 2.619 21.828 2.682 L 21.828 2.85 L 21.779 2.85 L 21.779 2.529 L 21.819 2.529 L 21.827 2.573 L 21.829 2.573 A 0.096 0.096 0 0 1 21.868 2.536 A 0.115 0.115 0 0 1 21.913 2.523 A 0.14 0.14 0 0 1 21.924 2.523 Q 21.97 2.523 21.997 2.544 A 0.083 0.083 0 0 1 22.022 2.578 L 22.025 2.578 A 0.102 0.102 0 0 1 22.063 2.54 A 0.122 0.122 0 0 1 22.066 2.538 A 0.123 0.123 0 0 1 22.111 2.524 A 0.153 0.153 0 0 1 22.128 2.523 Q 22.183 2.523 22.21 2.551 A 0.084 0.084 0 0 1 22.228 2.58 Q 22.233 2.593 22.235 2.61 A 0.223 0.223 0 0 1 22.237 2.641 L 22.237 2.85 Z M 20.312 2.809 L 20.308 2.809 L 20.298 2.85 L 20.263 2.85 L 20.263 2.394 L 20.312 2.394 L 20.312 2.505 A 1.014 1.014 0 0 1 20.311 2.539 Q 20.311 2.555 20.309 2.57 A 0.612 0.612 0 0 1 20.309 2.572 L 20.312 2.572 Q 20.346 2.524 20.412 2.524 A 0.149 0.149 0 0 1 20.454 2.529 A 0.111 0.111 0 0 1 20.511 2.567 A 0.143 0.143 0 0 1 20.536 2.615 Q 20.542 2.635 20.544 2.659 A 0.312 0.312 0 0 1 20.546 2.689 Q 20.546 2.768 20.51 2.812 A 0.115 0.115 0 0 1 20.429 2.855 A 0.165 0.165 0 0 1 20.412 2.856 A 0.148 0.148 0 0 1 20.375 2.851 A 0.128 0.128 0 0 1 20.355 2.844 A 0.108 0.108 0 0 1 20.312 2.809 Z M 21.141 2.81 L 21.141 2.847 Q 21.133 2.851 21.117 2.853 A 0.211 0.211 0 0 1 21.104 2.855 Q 21.096 2.856 21.09 2.856 Q 20.997 2.856 20.997 2.758 L 20.997 2.567 L 20.951 2.567 L 20.951 2.543 L 20.997 2.523 L 21.017 2.454 L 21.045 2.454 L 21.045 2.529 L 21.138 2.529 L 21.138 2.567 L 21.045 2.567 L 21.045 2.756 A 0.098 0.098 0 0 0 21.047 2.773 Q 21.048 2.782 21.052 2.79 A 0.047 0.047 0 0 0 21.059 2.8 A 0.045 0.045 0 0 0 21.087 2.815 A 0.065 0.065 0 0 0 21.097 2.816 A 0.16 0.16 0 0 0 21.12 2.814 A 0.144 0.144 0 0 0 21.122 2.814 A 0.263 0.263 0 0 0 21.129 2.813 Q 21.132 2.812 21.135 2.811 A 0.101 0.101 0 0 0 21.14 2.81 Z M 21.353 2.81 L 21.353 2.847 Q 21.345 2.851 21.329 2.853 A 0.211 0.211 0 0 1 21.316 2.855 Q 21.308 2.856 21.302 2.856 Q 21.208 2.856 21.208 2.758 L 21.208 2.567 L 21.162 2.567 L 21.162 2.543 L 21.208 2.523 L 21.229 2.454 L 21.257 2.454 L 21.257 2.529 L 21.35 2.529 L 21.35 2.567 L 21.257 2.567 L 21.257 2.756 A 0.098 0.098 0 0 0 21.258 2.773 Q 21.26 2.782 21.264 2.79 A 0.047 0.047 0 0 0 21.271 2.8 A 0.045 0.045 0 0 0 21.299 2.815 A 0.065 0.065 0 0 0 21.309 2.816 A 0.16 0.16 0 0 0 21.332 2.814 A 0.144 0.144 0 0 0 21.333 2.814 A 0.263 0.263 0 0 0 21.341 2.813 Q 21.344 2.812 21.347 2.811 A 0.101 0.101 0 0 0 21.352 2.81 Z M 20.908 2.689 Q 20.908 2.768 20.868 2.812 A 0.13 0.13 0 0 1 20.792 2.853 A 0.189 0.189 0 0 1 20.759 2.856 A 0.156 0.156 0 0 1 20.714 2.849 A 0.135 0.135 0 0 1 20.683 2.836 A 0.132 0.132 0 0 1 20.634 2.785 A 0.16 0.16 0 0 1 20.631 2.778 A 0.18 0.18 0 0 1 20.616 2.729 A 0.243 0.243 0 0 1 20.613 2.689 Q 20.613 2.629 20.636 2.59 A 0.134 0.134 0 0 1 20.652 2.567 Q 20.691 2.523 20.761 2.523 A 0.163 0.163 0 0 1 20.809 2.53 A 0.127 0.127 0 0 1 20.868 2.568 A 0.151 0.151 0 0 1 20.901 2.632 Q 20.907 2.655 20.908 2.681 A 0.285 0.285 0 0 1 20.908 2.689 Z M 21.694 2.689 Q 21.694 2.768 21.654 2.812 A 0.13 0.13 0 0 1 21.578 2.853 A 0.189 0.189 0 0 1 21.545 2.856 A 0.156 0.156 0 0 1 21.5 2.849 A 0.135 0.135 0 0 1 21.469 2.836 A 0.132 0.132 0 0 1 21.421 2.785 A 0.16 0.16 0 0 1 21.417 2.778 A 0.18 0.18 0 0 1 21.402 2.729 A 0.243 0.243 0 0 1 21.399 2.689 Q 21.399 2.629 21.422 2.59 A 0.134 0.134 0 0 1 21.438 2.567 Q 21.477 2.523 21.547 2.523 A 0.163 0.163 0 0 1 21.595 2.53 A 0.127 0.127 0 0 1 21.654 2.568 A 0.151 0.151 0 0 1 21.687 2.632 Q 21.693 2.655 21.694 2.681 A 0.285 0.285 0 0 1 21.694 2.689 Z M 20.663 2.689 A 0.246 0.246 0 0 0 20.666 2.724 Q 20.671 2.761 20.688 2.783 Q 20.712 2.815 20.76 2.815 A 0.113 0.113 0 0 0 20.79 2.811 A 0.079 0.079 0 0 0 20.833 2.783 Q 20.851 2.759 20.856 2.719 A 0.256 0.256 0 0 0 20.857 2.689 Q 20.857 2.65 20.847 2.623 A 0.1 0.1 0 0 0 20.833 2.596 A 0.08 0.08 0 0 0 20.783 2.566 A 0.123 0.123 0 0 0 20.76 2.564 A 0.116 0.116 0 0 0 20.731 2.568 A 0.077 0.077 0 0 0 20.687 2.596 A 0.101 0.101 0 0 0 20.672 2.626 Q 20.667 2.64 20.665 2.657 A 0.257 0.257 0 0 0 20.663 2.689 Z M 21.449 2.689 A 0.246 0.246 0 0 0 21.452 2.724 Q 21.457 2.761 21.474 2.783 Q 21.498 2.815 21.546 2.815 A 0.113 0.113 0 0 0 21.576 2.811 A 0.079 0.079 0 0 0 21.619 2.783 Q 21.637 2.759 21.642 2.719 A 0.256 0.256 0 0 0 21.643 2.689 Q 21.643 2.65 21.633 2.623 A 0.1 0.1 0 0 0 21.619 2.596 A 0.08 0.08 0 0 0 21.569 2.566 A 0.123 0.123 0 0 0 21.546 2.564 A 0.116 0.116 0 0 0 21.517 2.568 A 0.077 0.077 0 0 0 21.474 2.596 A 0.101 0.101 0 0 0 21.458 2.626 Q 21.453 2.64 21.451 2.657 A 0.257 0.257 0 0 0 21.449 2.689 Z M 20.405 2.564 A 0.137 0.137 0 0 0 20.379 2.567 Q 20.364 2.57 20.352 2.576 A 0.065 0.065 0 0 0 20.334 2.593 Q 20.314 2.618 20.312 2.673 A 0.375 0.375 0 0 0 20.312 2.689 A 0.322 0.322 0 0 0 20.313 2.722 Q 20.318 2.765 20.334 2.786 A 0.071 0.071 0 0 0 20.37 2.81 Q 20.382 2.814 20.397 2.815 A 0.156 0.156 0 0 0 20.407 2.815 A 0.097 0.097 0 0 0 20.434 2.811 A 0.07 0.07 0 0 0 20.473 2.782 A 0.112 0.112 0 0 0 20.487 2.753 Q 20.495 2.726 20.495 2.689 A 0.287 0.287 0 0 0 20.494 2.656 Q 20.489 2.62 20.476 2.598 A 0.081 0.081 0 0 0 20.473 2.595 A 0.071 0.071 0 0 0 20.428 2.567 A 0.112 0.112 0 0 0 20.405 2.564 Z" id="bottom_labelLayer" stroke="#777777" fill="#777777" style="stroke:#777777;fill:#777777" vector-effect="non-scaling-stroke"/></g></svg>